<mxfile host="65bd71144e">
    <diagram id="G5DQf_5sjYZgyjN62N7z" name="第 1 页">
        <mxGraphModel dx="626" dy="328" grid="1" gridSize="10" guides="1" tooltips="1" connect="1" arrows="1" fold="1" page="1" pageScale="1" pageWidth="827" pageHeight="1169" background="none" math="0" shadow="0">
            <root>
                <mxCell id="0"/>
                <mxCell id="1" parent="0"/>
                <mxCell id="10" value="" style="rounded=0;whiteSpace=wrap;html=1;" parent="1" vertex="1">
                    <mxGeometry x="120" y="960" width="440" height="160" as="geometry"/>
                </mxCell>
                <mxCell id="6" value="" style="rounded=0;whiteSpace=wrap;html=1;imageAspect=1;" parent="1" vertex="1">
                    <mxGeometry x="120" y="360" width="440" height="520" as="geometry"/>
                </mxCell>
                <mxCell id="40" style="edgeStyle=none;html=1;entryX=0.5;entryY=1;entryDx=0;entryDy=0;" parent="1" source="2" target="26" edge="1">
                    <mxGeometry relative="1" as="geometry">
                        <mxPoint x="720" y="700" as="targetPoint"/>
                        <Array as="points">
                            <mxPoint x="340" y="700"/>
                        </Array>
                    </mxGeometry>
                </mxCell>
                <mxCell id="41" value="打通普罗米修斯的api" style="edgeLabel;html=1;align=center;verticalAlign=middle;resizable=0;points=[];" parent="40" vertex="1" connectable="0">
                    <mxGeometry x="0.7825" y="-2" relative="1" as="geometry">
                        <mxPoint x="-2" y="109" as="offset"/>
                    </mxGeometry>
                </mxCell>
                <mxCell id="2" value="普罗米修斯Server&lt;br&gt;时序数据处理 &amp;amp; 存储&lt;br&gt;PORT9090" style="rounded=0;whiteSpace=wrap;html=1;" parent="1" vertex="1">
                    <mxGeometry x="130" y="660" width="200" height="80" as="geometry"/>
                </mxCell>
                <mxCell id="14" value="" style="edgeStyle=none;html=1;" parent="1" source="4" target="2" edge="1">
                    <mxGeometry relative="1" as="geometry"/>
                </mxCell>
                <mxCell id="36" value="将数据推送给普罗米修斯" style="edgeLabel;html=1;align=center;verticalAlign=middle;resizable=0;points=[];" parent="14" vertex="1" connectable="0">
                    <mxGeometry x="-0.4346" y="1" relative="1" as="geometry">
                        <mxPoint x="1" y="-1" as="offset"/>
                    </mxGeometry>
                </mxCell>
                <mxCell id="4" value="pushgateway&lt;br&gt;负责采集&amp;amp;汇总各个client的数据&lt;br&gt;PORT9091" style="rounded=0;whiteSpace=wrap;html=1;" parent="1" vertex="1">
                    <mxGeometry x="130" y="770" width="200" height="80" as="geometry"/>
                </mxCell>
                <mxCell id="5" value="prom-client&lt;br&gt;将数据push给pushgateway" style="rounded=0;whiteSpace=wrap;html=1;" parent="1" vertex="1">
                    <mxGeometry x="220" y="1020" width="240" height="70" as="geometry"/>
                </mxCell>
                <mxCell id="9" value="生产环境下的物理机" style="text;html=1;strokeColor=none;fillColor=none;align=center;verticalAlign=middle;whiteSpace=wrap;rounded=0;" parent="1" vertex="1">
                    <mxGeometry x="130" y="370" width="130" height="30" as="geometry"/>
                </mxCell>
                <mxCell id="11" value="多台客户机(卫星系统 &amp;amp; 相关设施所在的物理机)" style="text;html=1;strokeColor=none;fillColor=none;align=center;verticalAlign=middle;whiteSpace=wrap;rounded=0;" parent="1" vertex="1">
                    <mxGeometry x="130" y="970" width="260" height="30" as="geometry"/>
                </mxCell>
                <mxCell id="16" value="Springboot服务&lt;br&gt;负责非监控的业务模块&lt;br&gt;PORT3000" style="rounded=0;whiteSpace=wrap;html=1;" parent="1" vertex="1">
                    <mxGeometry x="350" y="660" width="200" height="80" as="geometry"/>
                </mxCell>
                <mxCell id="19" value="" style="endArrow=classic;html=1;exitX=0.454;exitY=0.002;exitDx=0;exitDy=0;entryX=0.5;entryY=1;entryDx=0;entryDy=0;exitPerimeter=0;" parent="1" source="10" target="4" edge="1">
                    <mxGeometry width="50" height="50" relative="1" as="geometry">
                        <mxPoint x="500" y="930" as="sourcePoint"/>
                        <mxPoint x="200" y="900" as="targetPoint"/>
                        <Array as="points">
                            <mxPoint x="320" y="920"/>
                            <mxPoint x="230" y="920"/>
                        </Array>
                    </mxGeometry>
                </mxCell>
                <mxCell id="20" value="将数据导出到pushgateway" style="edgeLabel;html=1;align=center;verticalAlign=middle;resizable=0;points=[];" parent="19" vertex="1" connectable="0">
                    <mxGeometry x="0.1472" y="-1" relative="1" as="geometry">
                        <mxPoint x="15" as="offset"/>
                    </mxGeometry>
                </mxCell>
                <mxCell id="22" value="" style="edgeStyle=none;html=1;" parent="1" source="21" target="16" edge="1">
                    <mxGeometry relative="1" as="geometry"/>
                </mxCell>
                <mxCell id="35" value="数据的增删查改" style="edgeLabel;html=1;align=center;verticalAlign=middle;resizable=0;points=[];" parent="22" vertex="1" connectable="0">
                    <mxGeometry x="-0.5692" relative="1" as="geometry">
                        <mxPoint y="-3" as="offset"/>
                    </mxGeometry>
                </mxCell>
                <mxCell id="21" value="mongodb&lt;br&gt;主要负责存储非时序的业务数据&lt;br&gt;PORT27071" style="rounded=0;whiteSpace=wrap;html=1;" parent="1" vertex="1">
                    <mxGeometry x="350" y="770" width="200" height="80" as="geometry"/>
                </mxCell>
                <mxCell id="27" style="edgeStyle=none;html=1;" parent="1" source="23" target="21" edge="1">
                    <mxGeometry relative="1" as="geometry">
                        <mxPoint x="600" y="870" as="targetPoint"/>
                        <Array as="points">
                            <mxPoint x="600" y="590"/>
                            <mxPoint x="600" y="810"/>
                        </Array>
                    </mxGeometry>
                </mxCell>
                <mxCell id="28" value="获取相应的告警规则" style="edgeLabel;html=1;align=center;verticalAlign=middle;resizable=0;points=[];" parent="27" vertex="1" connectable="0">
                    <mxGeometry x="0.0833" y="2" relative="1" as="geometry">
                        <mxPoint x="18" as="offset"/>
                    </mxGeometry>
                </mxCell>
                <mxCell id="33" value="" style="edgeStyle=none;html=1;exitX=0.5;exitY=1;exitDx=0;exitDy=0;" parent="1" source="23" target="16" edge="1">
                    <mxGeometry relative="1" as="geometry">
                        <mxPoint x="450" y="640" as="sourcePoint"/>
                    </mxGeometry>
                </mxCell>
                <mxCell id="34" value="触发告警时向服务端通知" style="edgeLabel;html=1;align=center;verticalAlign=middle;resizable=0;points=[];" parent="33" vertex="1" connectable="0">
                    <mxGeometry x="0.2074" relative="1" as="geometry">
                        <mxPoint y="-8" as="offset"/>
                    </mxGeometry>
                </mxCell>
                <mxCell id="23" value="AlertManager&lt;br&gt;告警模块&lt;br&gt;告警规则对接MongoDB&lt;br&gt;PORT5001" style="rounded=0;whiteSpace=wrap;html=1;" parent="1" vertex="1">
                    <mxGeometry x="350" y="550" width="200" height="80" as="geometry"/>
                </mxCell>
                <mxCell id="31" value="" style="edgeStyle=none;html=1;entryX=0.25;entryY=1;entryDx=0;entryDy=0;exitX=0.526;exitY=-0.004;exitDx=0;exitDy=0;exitPerimeter=0;" parent="1" source="24" target="26" edge="1">
                    <mxGeometry relative="1" as="geometry"/>
                </mxCell>
                <mxCell id="32" value="微前端（？）嵌入管理员面板" style="edgeLabel;html=1;align=center;verticalAlign=middle;resizable=0;points=[];" parent="31" vertex="1" connectable="0">
                    <mxGeometry x="-0.5394" relative="1" as="geometry">
                        <mxPoint x="5" y="-3" as="offset"/>
                    </mxGeometry>
                </mxCell>
                <mxCell id="38" value="" style="edgeStyle=none;html=1;" parent="1" source="24" target="2" edge="1">
                    <mxGeometry relative="1" as="geometry"/>
                </mxCell>
                <mxCell id="39" value="从普罗米修斯获取数据源" style="edgeLabel;html=1;align=center;verticalAlign=middle;resizable=0;points=[];" parent="38" vertex="1" connectable="0">
                    <mxGeometry x="-0.5911" y="2" relative="1" as="geometry">
                        <mxPoint x="-2" y="4" as="offset"/>
                    </mxGeometry>
                </mxCell>
                <mxCell id="24" value="Grafana&lt;br&gt;数据监控大盘&lt;br&gt;以微前端的方式嵌入进前端页面中&lt;br&gt;PORT3001" style="rounded=0;whiteSpace=wrap;html=1;" parent="1" vertex="1">
                    <mxGeometry x="130" y="550" width="200" height="80" as="geometry"/>
                </mxCell>
                <mxCell id="26" value="前端页面&lt;br&gt;服务端渲染，并配有一个简单的后端。&lt;br&gt;后端负责对各个服务的转发。&lt;br&gt;PORT8080" style="rounded=0;whiteSpace=wrap;html=1;" parent="1" vertex="1">
                    <mxGeometry x="130" y="420" width="420" height="100" as="geometry"/>
                </mxCell>
                <mxCell id="42" value="" style="rounded=0;whiteSpace=wrap;html=1;" parent="1" vertex="1">
                    <mxGeometry x="20" y="20" width="560" height="320" as="geometry"/>
                </mxCell>
                <mxCell id="43" value="窗口选择 &amp;amp; 截图" style="rounded=0;whiteSpace=wrap;html=1;" parent="1" vertex="1">
                    <mxGeometry x="430" y="30" width="140" height="30" as="geometry"/>
                </mxCell>
                <mxCell id="44" value="窗口截图" style="rounded=0;whiteSpace=wrap;html=1;" parent="1" vertex="1">
                    <mxGeometry x="115" y="80" width="295" height="250" as="geometry"/>
                </mxCell>
                <mxCell id="45" value="文本输入" style="rounded=0;whiteSpace=wrap;html=1;" parent="1" vertex="1">
                    <mxGeometry x="430" y="80" width="140" height="210" as="geometry"/>
                </mxCell>
                <mxCell id="46" value="路线Select（hover出其他信息）" style="rounded=0;whiteSpace=wrap;html=1;" parent="1" vertex="1">
                    <mxGeometry x="115" y="30" width="295" height="30" as="geometry"/>
                </mxCell>
                <mxCell id="47" value="实例选择&lt;br&gt;hover出详情" style="rounded=0;whiteSpace=wrap;html=1;" parent="1" vertex="1">
                    <mxGeometry x="30" y="30" width="70" height="260" as="geometry"/>
                </mxCell>
                <mxCell id="48" value="Submit" style="rounded=0;whiteSpace=wrap;html=1;" parent="1" vertex="1">
                    <mxGeometry x="430" y="300" width="140" height="30" as="geometry"/>
                </mxCell>
                <mxCell id="49" value="config(ls)" style="rounded=0;whiteSpace=wrap;html=1;" parent="1" vertex="1">
                    <mxGeometry x="30" y="300" width="40" height="30" as="geometry"/>
                </mxCell>
                <mxCell id="50" value="已截图的列表（可删除）" style="rounded=0;whiteSpace=wrap;html=1;" parent="1" vertex="1">
                    <mxGeometry x="130" y="90" width="270" height="40" as="geometry"/>
                </mxCell>
                <mxCell id="51" value="filter" style="rounded=0;whiteSpace=wrap;html=1;" parent="1" vertex="1">
                    <mxGeometry x="40" y="40" width="50" height="20" as="geometry"/>
                </mxCell>
                <mxCell id="52" value="refresh" style="rounded=0;whiteSpace=wrap;html=1;" parent="1" vertex="1">
                    <mxGeometry x="80" y="300" width="20" height="30" as="geometry"/>
                </mxCell>
            </root>
        </mxGraphModel>
    </diagram>
</mxfile>